{"title":"American.Crime.Story.S01E01.1080p.WEB-DL.DD5.1.H.264-RARBG","uid":13421828,"size":2500573742,"categoryP":"video","categoryS":"hd___tv_shows","magnet":"?xt=urn:btih:6beba7401b437dfbe806e0e178ae80b00d8b47b1&amp;dn=American.Crime.Story.S01E01.1080p.WEB-DL.DD5.1.H.264-RARBG&amp;tr=udp%3A%2F%2Ftracker.leechers-paradise.org%3A6969&amp;tr=udp%3A%2F%2Fzer0day.ch%3A1337&amp;tr=udp%3A%2F%2Fopen.demonii.com%3A1337&amp;tr=udp%3A%2F%2Ftracker.coppersurfer.tk%3A6969&amp;tr=udp%3A%2F%2Fexodus.desync.com%3A6969","seeders":0,"leechers":0,"uploader":"frostyon420","files":3,"time":1454554120,"description":"â•”â•â•â•â•¦â•—â”€â”€â”€â•”â•â•â•â•—â”€â”€â•”â•—â•”â•—â”€â”€â•”â•—\r\nâ•‘â•”â•â•—â•‘â•‘â”€â”€â”€â•‘â•”â•â•—â•‘â”€â•”â•â•šâ•£â•šâ•—â•”â•â•‘\r\nâ•‘â•šâ•â•â•‘â•šâ•â•¦â•â•£â•‘â•‘â•‘â• â•â•©â•—â•”â•©â•—â•šâ•â•”â•\r\nâ•‘â•”â•â•â•£â•”â•—â•‘â•”â•£â•‘â•‘â•‘â•‘â•â•â•£â•‘â”€â•šâ•—â•”â•\r\nâ•‘â•‘â”€â”€â•‘â•‘â•‘â•‘â•‘â•‘â•šâ•â•â• â•â•â•‘â•šâ•—â”€â•‘â•‘\r\nâ•šâ•â”€â”€â•šâ•â•šâ•©â•â•šâ•â•â•â•©â•â•â•©â•â•â”€â•šâ•\r\nPhr0stY-Duz-It\r\nFuck kat.cr and it's crew\r\n\r\n[mediainfo]\r\nVideo\r\nID                          : 1\r\nFormat                      : AVC\r\nFormat/Info                 : Advanced Video Codec\r\nFormat profile              :   \r\nFormat settings, CABAC      : Yes\r\nFormat settings, ReFrames   : 4 frames\r\nCodec ID                    : V_MPEG4/ISO/AVC\r\nDuration                    : 1h 0mn\r\nBit rate                    : 5 021 Kbps\r\nWidth                       : 1 916 pixels\r\nHeight                      : 1 076 pixels\r\nDisplay aspect ratio        : 16:9\r\nFrame rate mode             : Constant\r\nFrame rate                  : 23.976 fps\r\nColor space                 : YUV\r\nChroma subsampling          : 4:2:0\r\nBit depth                   : 8 bits\r\nScan type                   : Progressive\r\nBits/(Pixel*Frame)          : 0.102\r\nStream size                 : 2.12 GiB (91%)\r\nTitle                       : American.Crime.Story.The.People.v.O.J.Simpson.S01E01.1080p.WEB-DL.DD5.1.H.264-RARBG\r\nLanguage                    : English\r\nDefault                     : Yes\r\nForced                      : No\r\nColor primaries             : BT.709\r\nTransfer characteristics    : BT.709\r\nMatrix coefficients         : BT.709\r\nColor range                 : Limited\r\n\r\nAudio\r\nID                          : 2\r\nFormat                      : AC-3\r\nFormat/Info                 : Audio Coding 3\r\nMode extension              : CM (complete main)\r\nFormat settings, Endianness : Big\r\nCodec ID                    : A_AC3\r\nDuration                    : 1h 0mn\r\nBit rate mode               : Constant\r\nBit rate                    : 384 Kbps\r\nChannel(s)                  : 6 channels\r\nChannel positions           : Front: L C R, Side: L R, LFE\r\nSampling rate               : 48.0 KHz\r\nBit depth                   : 16 bits\r\nCompression mode            : Lossy\r\nStream size                 : 166 MiB (7%)\r\nTitle                       : American.Crime.Story.The.People.v.O.J.Simpson.S01E01.1080p.WEB-DL.DD5.1.H.264-RARBG\r\nLanguage                    : English\r\nDefault                     : Yes\r\nForced                      : No\r\n\r\nText\r\nID                          : 3\r\nFormat                      : UTF-8\r\nCodec ID                    : S_TEXT/UTF8\r\nCodec ID/Info               : UTF-8 Plain Text\r\nTitle                       : English\r\nLanguage                    : English\r\nDefault                     : No\r\nForced                      : No","torrent":{"xt":"urn:btih:6beba7401b437dfbe806e0e178ae80b00d8b47b1","amp;dn":"American.Crime.Story.S01E01.1080p.WEB-DL.DD5.1.H.264-RARBG","amp;tr":["udp%3A%2F%2Ftracker.leechers-paradise.org%3A6969","udp%3A%2F%2Fzer0day.ch%3A1337","udp%3A%2F%2Fopen.demonii.com%3A1337","udp%3A%2F%2Ftracker.coppersurfer.tk%3A6969","udp%3A%2F%2Fexodus.desync.com%3A6969"],"infoHash":"6beba7401b437dfbe806e0e178ae80b00d8b47b1","infoHashBuffer":{"type":"Buffer","data":[107,235,167,64,27,67,125,251,232,6,224,225,120,174,128,176,13,139,71,177]},"announce":[],"urlList":[]}}